<svg width="220" height="64" viewBox="0 0 220 64" fill="none" xmlns="http://www.w3.org/2000/svg">
  <g>
    <path d="M24 10C19 10 14.8 13.9 14.2 18.9C9.1 19.5 5 23.7 5 29C5 34.7 9.7 39.4 15.4 39.4H17.5L17.5 48.2L20.5 46.7L23.4 48.2L23.4 39.4H26.8V48.2L29.8 46.7L32.7 48.2V39.4H34.6C41.2 39.4 46.5 34 46.5 27.4C46.5 21.7 42.4 16.9 36.9 15.9C35.4 11.9 31.5 9 27 9C25.9 9 24.9 9.3 24 10Z" fill="#57A639"/>
    <path d="M24.5 28.5C24.5 23.3 27.9 18.4 33.5 16.4L31.6 12.9C28.1 14.2 25.3 16.7 23.5 19.8C21.6 16.8 18.9 14.3 15.4 12.9L13.4 16.4C19 18.4 22.4 23.3 22.4 28.5V43.7L20.2 46.2L22.1 49.3L23.5 47.8L25 49.3L26.9 46.2L24.5 43.7V28.5Z" fill="#1F4B2F"/>
    <path d="M28.5 33.5C28.5 29.7 31.5 26.7 35.3 26.7V23.4C31.5 23.4 28.5 20.3 28.5 16.6H25.2C25.2 20.3 22.1 23.4 18.4 23.4V26.7C22.1 26.7 25.2 29.7 25.2 33.5H28.5Z" fill="#D4AF37"/>
    <path d="M23.8 46.4C23.8 53.1 28.4 57.8 35.1 57.8V54.5C30.4 54.5 27 51.2 27 46.4V45.4H31.1V42.1H27V38.7H31.1V35.5H27V34.5C27 29.9 30.5 26.4 35.1 26.4V23.1C28.4 23.1 23.8 27.8 23.8 34.5V35.5H20.3V38.7H23.8V42.1H20.3V45.4H23.8V46.4Z" fill="#D4AF37"/>
  </g>
  <text x="56" y="42" font-family="Arial, Helvetica, sans-serif" font-size="34" font-weight="700" fill="#1F4B2F">Agro<tspan fill="#57A639" font-weight="500">Balance</tspan></text>
</svg>
